HIERARCHY
ROOT hips
{
	OFFSET -0.003675 0.299928 -0.021708
	CHANNELS 6 Xposition Yposition Zposition Xrotation Yrotation Zrotation
	JOINT LowerBack
	{
		OFFSET 0.000919 0.177588 0.009275
		CHANNELS 3 Xrotation Yrotation Zrotation
		JOINT spine
		{
			OFFSET 0.000919 0.177588 0.009275
			CHANNELS 3 Xrotation Yrotation Zrotation
			JOINT chest
			{
				OFFSET 0.000456 0.100015 0.004638
				CHANNELS 3 Xrotation Yrotation Zrotation
				JOINT neck
				{
					OFFSET 0.000456 0.100015 0.004638
					CHANNELS 3 Xrotation Yrotation Zrotation
					JOINT head
					{
						OFFSET 0.000924 0.155147 0.009274
						CHANNELS 6 Xposition Yposition Zposition Xrotation Yrotation Zrotation
						End Site
						{
							OFFSET 0.000000 0.153400 0.000000
						}
					}
				}
				JOINT shoulder.L
				{
					OFFSET 0.019937 0.078966 0.057518
					CHANNELS 6 Xposition Yposition Zposition Yrotation Xrotation Zrotation
					JOINT upper_arm.L
					{
						OFFSET 0.177024 -0.020465 -0.095062
						CHANNELS 6 Xposition Yposition Zposition Xrotation Yrotation Zrotation
						JOINT forearm.L
						{
							OFFSET 0.247100 -0.135500 -0.061800
							CHANNELS 3 Xrotation Yrotation Zrotation
							JOINT hand.L
							{
								OFFSET 0.217000 -0.143000 0.039300
								CHANNELS 3 Xrotation Yrotation Zrotation
								JOINT palm.01.L
								{
									OFFSET 0.021770 -0.038291 0.012954
									CHANNELS 6 Xposition Yposition Zposition Yrotation Xrotation Zrotation
									JOINT f_index.01.L
									{
										OFFSET 0.053215 -0.044137 0.008236
										CHANNELS 3 Xrotation Yrotation Zrotation
										JOINT f_index.02.L
										{
											OFFSET 0.036108 -0.024723 -0.010656
											CHANNELS 3 Xrotation Yrotation Zrotation
											JOINT f_index.03.L
											{
												OFFSET 0.021342 -0.014948 -0.010846
												CHANNELS 3 Xrotation Yrotation Zrotation
												End Site
												{
													OFFSET 0.015600 -0.009860 -0.013421
												}
											}
										}
									}
									JOINT thumb.01.L
									{
										OFFSET -0.009090 -0.002348 -0.024223
										CHANNELS 6 Xposition Yposition Zposition Xrotation Yrotation Zrotation
										JOINT thumb.02.L
										{
											OFFSET 0.019713 -0.035076 -0.011120
											CHANNELS 3 Xrotation Yrotation Zrotation
											JOINT thumb.03.L
											{
												OFFSET 0.024877 -0.021748 -0.005176
												CHANNELS 3 Xrotation Yrotation Zrotation
												End Site
												{
													OFFSET 0.016125 -0.013029 -0.001569
												}
											}
										}
									}
								}
								JOINT palm.02.L
								{
									OFFSET 0.032823 -0.025104 0.012281
									CHANNELS 6 Xposition Yposition Zposition Yrotation Xrotation Zrotation
									JOINT f_middle.01.L
									{
										OFFSET 0.055723 -0.038469 0.008037
										CHANNELS 3 Xrotation Yrotation Zrotation
										JOINT f_middle.02.L
										{
											OFFSET 0.038167 -0.027473 -0.015582
											CHANNELS 3 Xrotation Yrotation Zrotation
											JOINT f_middle.03.L
											{
												OFFSET 0.021707 -0.016587 -0.017037
												CHANNELS 3 Xrotation Yrotation Zrotation
												End Site
												{
													OFFSET 0.014112 -0.010584 -0.014294
												}
											}
										}
									}
								}
								JOINT palm.03.L
								{
									OFFSET 0.039230 -0.011402 0.008390
									CHANNELS 6 Xposition Yposition Zposition Yrotation Xrotation Zrotation
									JOINT f_ring.01.L
									{
										OFFSET 0.061796 -0.031470 0.007910
										CHANNELS 3 Xrotation Yrotation Zrotation
										JOINT f_ring.02.L
										{
											OFFSET 0.033092 -0.023401 -0.019127
											CHANNELS 3 Xrotation Yrotation Zrotation
											JOINT f_ring.03.L
											{
												OFFSET 0.021392 -0.015362 -0.017824
												CHANNELS 3 Xrotation Yrotation Zrotation
												End Site
												{
													OFFSET 0.008670 -0.007297 -0.014686
												}
											}
										}
									}
								}
								JOINT palm.04.L
								{
									OFFSET 0.043417 0.002450 0.002889
									CHANNELS 6 Xposition Yposition Zposition Yrotation Xrotation Zrotation
									JOINT f_pinky.01.L
									{
										OFFSET 0.069986 -0.026156 0.003627
										CHANNELS 3 Xrotation Yrotation Zrotation
										JOINT f_pinky.02.L
										{
											OFFSET 0.018520 -0.012813 -0.016429
											CHANNELS 3 Xrotation Yrotation Zrotation
											JOINT f_pinky.03.L
											{
												OFFSET 0.013822 -0.009796 -0.014947
												CHANNELS 3 Xrotation Yrotation Zrotation
												End Site
												{
													OFFSET 0.007238 -0.006103 -0.011657
												}
											}
										}
									}
								}
							}
						}
					}
				}
				JOINT shoulder.R
				{
					OFFSET -0.016662 0.078957 0.057696
					CHANNELS 6 Xposition Yposition Zposition Yrotation Xrotation Zrotation
					JOINT upper_arm.R
					{
						OFFSET -0.176972 -0.020537 -0.095144
						CHANNELS 6 Xposition Yposition Zposition Xrotation Yrotation Zrotation
						JOINT forearm.R
						{
							OFFSET -0.247100 -0.135500 -0.061800
							CHANNELS 3 Xrotation Yrotation Zrotation
							JOINT hand.R
							{
								OFFSET -0.217000 -0.143000 0.039300
								CHANNELS 3 Xrotation Yrotation Zrotation
								JOINT palm.01.R
								{
									OFFSET -0.021773 -0.038278 0.012988
									CHANNELS 6 Xposition Yposition Zposition Yrotation Xrotation Zrotation
									JOINT f_index.01.R
									{
										OFFSET -0.053212 -0.044139 0.008249
										CHANNELS 3 Xrotation Yrotation Zrotation
										JOINT f_index.02.R
										{
											OFFSET -0.036049 -0.024835 -0.010634
											CHANNELS 3 Xrotation Yrotation Zrotation
											JOINT f_index.03.R
											{
												OFFSET -0.021371 -0.014881 -0.010866
												CHANNELS 3 Xrotation Yrotation Zrotation
												End Site
												{
													OFFSET -0.015584 -0.009883 -0.013422
												}
											}
										}
									}
									JOINT thumb.01.R
									{
										OFFSET 0.009113 -0.002381 -0.024211
										CHANNELS 6 Xposition Yposition Zposition Xrotation Yrotation Zrotation
										JOINT thumb.02.R
										{
											OFFSET -0.019694 -0.035097 -0.011088
											CHANNELS 3 Xrotation Yrotation Zrotation
											JOINT thumb.03.R
											{
												OFFSET -0.024867 -0.021762 -0.005168
												CHANNELS 3 Xrotation Yrotation Zrotation
												End Site
												{
													OFFSET -0.016120 -0.013036 -0.001565
												}
											}
										}
									}
								}
								JOINT palm.02.R
								{
									OFFSET -0.032828 -0.025095 0.012286
									CHANNELS 6 Xposition Yposition Zposition Yrotation Xrotation Zrotation
									JOINT f_middle.01.R
									{
										OFFSET -0.055721 -0.038472 0.008040
										CHANNELS 3 Xrotation Yrotation Zrotation
										JOINT f_middle.02.R
										{
											OFFSET -0.038101 -0.027593 -0.015557
											CHANNELS 3 Xrotation Yrotation Zrotation
											JOINT f_middle.03.R
											{
												OFFSET -0.021730 -0.016530 -0.017054
												CHANNELS 3 Xrotation Yrotation Zrotation
												End Site
												{
													OFFSET -0.014096 -0.010608 -0.014293
												}
											}
										}
									}
								}
								JOINT palm.03.R
								{
									OFFSET -0.039192 -0.011488 0.008390
									CHANNELS 6 Xposition Yposition Zposition Yrotation Xrotation Zrotation
									JOINT f_ring.01.R
									{
										OFFSET -0.061839 -0.031387 0.007876
										CHANNELS 3 Xrotation Yrotation Zrotation
										JOINT f_ring.02.R
										{
											OFFSET -0.033068 -0.023437 -0.019125
											CHANNELS 3 Xrotation Yrotation Zrotation
											JOINT f_ring.03.R
											{
												OFFSET -0.021371 -0.015393 -0.017822
												CHANNELS 3 Xrotation Yrotation Zrotation
												End Site
												{
													OFFSET -0.008654 -0.007321 -0.014684
												}
											}
										}
									}
								}
								JOINT palm.04.R
								{
									OFFSET -0.043421 0.002443 0.002845
									CHANNELS 6 Xposition Yposition Zposition Yrotation Xrotation Zrotation
									JOINT f_pinky.01.R
									{
										OFFSET -0.069983 -0.026169 0.003599
										CHANNELS 3 Xrotation Yrotation Zrotation
										JOINT f_pinky.02.R
										{
											OFFSET -0.018501 -0.012842 -0.016428
											CHANNELS 3 Xrotation Yrotation Zrotation
											JOINT f_pinky.03.R
											{
												OFFSET -0.013806 -0.009821 -0.014946
												CHANNELS 3 Xrotation Yrotation Zrotation
												End Site
												{
													OFFSET -0.007226 -0.006121 -0.011655
												}
											}
										}
									}
								}
							}
						}
					}
				}
			}
		}
	}
	JOINT pelvis.L
	{
		OFFSET 0.000000 0.000000 0.000000
		CHANNELS 6 Xposition Yposition Zposition Xrotation Yrotation Zrotation
		JOINT thigh.L
		{
			OFFSET 0.101675 0.001054 -0.000000
			CHANNELS 3 Xrotation Yrotation Zrotation
			JOINT shin.L
			{
				OFFSET 0.000000 -0.534800 0.041000
				CHANNELS 3 Xrotation Yrotation Zrotation
				JOINT foot.L
				{
					OFFSET 0.000000 -0.452000 -0.044800
					CHANNELS 3 Xrotation Yrotation Zrotation
					JOINT toe.L
					{
						OFFSET -0.000000 -0.068500 0.109600
						CHANNELS 3 Xrotation Yrotation Zrotation
						End Site
						{
							OFFSET -0.000000 0.000000 0.067200
						}
					}
				}
				JOINT heel.L
				{
					OFFSET 0.000000 -0.452000 -0.044800
					CHANNELS 3 Xrotation Yrotation Zrotation
					JOINT heel.02.L
					{
						OFFSET -0.038000 -0.085200 0.016200
						CHANNELS 6 Xposition Yposition Zposition Xrotation Yrotation Zrotation
						End Site
						{
							OFFSET 0.080000 -0.000000 0.000000
						}
					}
				}
			}
		}
	}
	JOINT pelvis.R
	{
		OFFSET 0.000000 0.000000 0.000000
		CHANNELS 6 Xposition Yposition Zposition Xrotation Yrotation Zrotation
		JOINT thigh.R
		{
			OFFSET -0.094325 0.001054 0.000000
			CHANNELS 3 Xrotation Yrotation Zrotation
			JOINT shin.R
			{
				OFFSET 0.000000 -0.534800 0.041000
				CHANNELS 3 Xrotation Yrotation Zrotation
				JOINT foot.R
				{
					OFFSET 0.000000 -0.452000 -0.044800
					CHANNELS 3 Xrotation Yrotation Zrotation
					JOINT toe.R
					{
						OFFSET -0.000000 -0.068500 0.109600
						CHANNELS 3 Xrotation Yrotation Zrotation
						End Site
						{
							OFFSET -0.000000 0.000000 0.067200
						}
					}
				}
				JOINT heel.R
				{
					OFFSET 0.000000 -0.452000 -0.044800
					CHANNELS 3 Xrotation Yrotation Zrotation
					JOINT heel.02.R
					{
						OFFSET 0.038000 -0.085200 0.016200
						CHANNELS 6 Xposition Yposition Zposition Xrotation Yrotation Zrotation
						End Site
						{
							OFFSET -0.080000 0.000000 -0.000000
						}
					}
				}
			}
		}
	}
}
MOTION
Frames: 4
Frame Time: 0.041667
-0.000157 0.256608 -0.021195 -19.701455 -43.721940 -17.696351 0.000001 -0.000001 -0.000000 0.000002 0.000001 0.000000 0.000000 0.000001 0.000000 0.000000 0.000001 0.000000 0.000924 0.155148 0.009274 14.073665 -0.017126 3.386854 0.019937 0.078966 0.057518 16.238303 8.392963 37.422647 0.177025 -0.020466 -0.095062 -24.072483 1.578394 -34.626737 12.140724 22.227374 2.533896 -0.000000 -0.000000 -0.000004 0.021770 -0.038291 0.012954 -0.000002 -0.000002 -0.000002 -0.000002 -0.000004 0.000001 -0.000001 -0.000000 0.000005 -0.000000 0.000006 0.000002 -0.009090 -0.002348 -0.024223 0.000001 -0.000004 0.000000 -0.000000 -0.000000 0.000005 -0.000000 -0.000000 0.000003 0.032823 -0.025104 0.012281 -0.000004 -0.000003 0.000002 -0.000001 -0.000000 -0.000009 -0.000006 -0.000001 0.000001 -0.000003 -0.000004 0.000004 0.039230 -0.011402 0.008390 -0.000003 -0.000002 0.000004 0.000001 -0.000002 0.000001 -0.000000 0.000003 -0.000002 0.000001 -0.000003 0.000001 0.043417 0.002450 0.002889 -0.000003 -0.000003 -0.000003 -0.000000 -0.000003 0.000001 -0.000001 0.000000 0.000001 -0.000003 0.000000 0.000002 -0.016662 0.078956 0.057696 8.828667 7.823346 -47.040005 -0.176972 -0.020537 -0.095144 -49.322415 -22.243727 64.429967 17.942178 -14.893002 -343.198073 -0.000001 0.000001 0.000004 -0.021773 -0.038278 0.012988 0.000001 -0.000003 -0.000003 -0.000003 0.000005 -0.000003 -0.000000 0.000001 -0.000006 0.000001 0.000003 0.000002 0.009114 -0.002381 -0.024212 0.000001 0.000001 0.000001 -0.000003 -0.000004 0.000002 0.000002 0.000004 -0.000003 -0.032828 -0.025095 0.012286 0.000001 0.000002 0.000002 0.000005 0.000003 0.000001 0.000002 0.000003 -0.000000 -0.000004 0.000006 -0.000007 -0.039192 -0.011488 0.008390 -0.000002 0.000001 -0.000000 -0.000001 0.000002 0.000000 -0.000001 -0.000001 0.000003 -0.000003 -0.000001 -0.000002 -0.043421 0.002443 0.002845 -0.000002 -0.000000 0.000002 0.000002 0.000003 -0.000001 0.000004 -0.000001 -0.000000 -0.000002 0.000001 -0.000001 -0.000000 0.000000 -0.000000 -1.502321 -0.318946 3.034650 -23.825636 -0.701967 -7.599250 119.832336 -1.543057 15.772795 -0.000002 -0.000001 0.000003 0.000001 -0.000002 0.000002 0.000000 -0.000002 0.000004 -0.038000 -0.085200 0.016200 0.000001 -0.000001 0.000001 -0.000000 -0.000000 -0.000000 -1.479461 -0.317489 4.268960 -11.617535 0.395850 4.019834 106.736261 -1.264955 12.875297 0.000000 0.000001 -0.000000 0.000001 0.000001 0.000000 0.000005 -0.000000 -0.000002 0.038000 -0.085200 0.016200 -0.000003 -0.000002 0.000002 
-0.002810 0.258951 -0.021254 -20.340242 -23.170583 -12.044039 0.000002 0.000003 0.000002 0.000003 0.000003 0.000001 0.000000 0.000001 -0.000001 -0.000001 0.000001 -0.000000 0.000924 0.155147 0.009274 14.323841 -0.017851 5.907146 0.019937 0.078966 0.057518 10.938644 9.456301 46.704386 0.177024 -0.020466 -0.095062 -35.570949 -25.434737 -15.085975 5.667291 16.457001 13.244054 -0.000004 0.000001 0.000003 0.021770 -0.038291 0.012954 -0.000001 -0.000000 -0.000002 -0.000001 -0.000004 -0.000001 -0.000000 -0.000002 0.000006 -0.000001 0.000002 0.000002 -0.009090 -0.002348 -0.024224 -0.000002 -0.000004 -0.000000 0.000002 -0.000001 0.000003 0.000001 0.000003 -0.000002 0.032823 -0.025104 0.012281 -0.000001 -0.000002 0.000005 0.000000 0.000006 -0.000005 0.000001 -0.000002 0.000003 -0.000007 -0.000002 0.000006 0.039230 -0.011402 0.008390 -0.000000 -0.000003 0.000004 0.000002 0.000001 0.000001 0.000001 0.000006 -0.000002 0.000003 -0.000002 0.000003 0.043417 0.002449 0.002889 -0.000001 0.000002 -0.000002 0.000001 -0.000002 0.000001 -0.000001 0.000003 -0.000001 0.000001 0.000003 -0.000003 -0.016662 0.078956 0.057696 2.993699 8.548571 -48.026216 -0.176972 -0.020537 -0.095144 -49.251900 -22.694388 64.898101 11.212741 -3.452157 -331.228876 0.000001 -0.000001 0.000004 -0.021773 -0.038278 0.012988 -0.000000 -0.000000 -0.000003 -0.000003 -0.000000 -0.000001 -0.000002 0.000003 -0.000006 -0.000002 0.000001 -0.000000 0.009113 -0.002381 -0.024212 -0.000000 -0.000003 -0.000003 -0.000003 -0.000000 0.000000 -0.000004 0.000003 -0.000003 -0.032828 -0.025095 0.012286 0.000001 -0.000000 -0.000003 -0.000002 0.000002 -0.000001 0.000001 -0.000002 0.000001 0.000003 0.000002 0.000003 -0.039192 -0.011488 0.008390 -0.000001 0.000001 -0.000000 -0.000002 0.000001 -0.000007 0.000003 -0.000001 0.000003 -0.000003 -0.000003 -0.000005 -0.043421 0.002443 0.002845 -0.000001 0.000000 -0.000005 -0.000002 0.000004 -0.000002 0.000001 -0.000003 0.000002 -0.000002 0.000003 0.000000 -0.000000 0.000000 -0.000000 -1.437682 -0.249852 2.198406 -18.256042 -0.654426 -7.316734 112.830333 -1.715844 17.594301 -0.000002 -0.000002 0.000006 0.000000 0.000002 -0.000002 0.000000 -0.000000 0.000005 -0.038000 -0.085200 0.016200 -0.000002 0.000000 0.000003 -0.000000 0.000000 -0.000000 -1.414049 -0.248699 3.432694 -9.901388 0.476535 5.226760 107.256926 -1.072330 10.888383 0.000000 -0.000000 0.000005 0.000001 -0.000002 0.000001 0.000005 -0.000002 0.000005 0.038000 -0.085200 0.016200 -0.000000 -0.000000 0.000003 
-0.004271 0.282624 -0.018273 17.712311 39.970878 -8.621905 0.000000 0.000001 0.000000 -0.000000 -0.000000 -0.000001 -0.000002 -0.000004 0.000000 -0.000001 -0.000004 0.000001 0.000924 0.155147 0.009274 -8.395479 0.025364 5.484407 0.019937 0.078966 0.057518 -6.481346 7.178628 40.370601 0.177024 -0.020465 -0.095062 -31.686631 -13.504866 -22.356251 3.135710 12.702554 17.066319 -0.000002 -0.000000 0.000001 0.021770 -0.038291 0.012954 0.000001 0.000001 -0.000001 -0.000001 -0.000002 0.000001 -0.000003 -0.000006 0.000006 0.000002 0.000009 0.000001 -0.009090 -0.002348 -0.024223 -0.000000 -0.000002 0.000000 0.000002 0.000002 0.000001 0.000003 0.000003 -0.000002 0.032823 -0.025104 0.012281 -0.000000 0.000003 0.000007 -0.000001 0.000000 -0.000002 0.000000 0.000000 0.000001 0.000000 -0.000002 0.000006 0.039230 -0.011402 0.008390 0.000001 0.000001 0.000003 0.000002 0.000000 -0.000000 -0.000001 0.000005 0.000005 -0.000001 -0.000006 0.000001 0.043417 0.002450 0.002889 -0.000000 0.000002 -0.000000 -0.000001 -0.000006 0.000002 0.000002 0.000003 -0.000003 0.000002 0.000000 -0.000002 -0.016662 0.078957 0.057696 4.131277 2.416581 -23.937542 -0.176972 -0.020537 -0.095144 -23.182564 -19.998872 81.279668 15.662594 -13.461482 -345.591262 -0.000005 0.000001 0.000002 -0.021773 -0.038278 0.012988 0.000000 -0.000003 -0.000003 -0.000002 0.000002 -0.000001 0.000001 0.000001 -0.000004 -0.000005 0.000005 -0.000002 0.009114 -0.002381 -0.024211 -0.000000 -0.000000 -0.000001 -0.000000 -0.000002 0.000000 -0.000002 -0.000002 -0.000003 -0.032828 -0.025095 0.012286 0.000000 -0.000000 -0.000003 0.000001 0.000003 0.000002 0.000003 -0.000001 -0.000002 -0.000003 0.000003 -0.000006 -0.039192 -0.011488 0.008390 -0.000000 0.000001 -0.000000 -0.000005 0.000003 -0.000003 -0.000001 -0.000004 -0.000000 -0.000000 0.000003 -0.000000 -0.043421 0.002443 0.002845 -0.000000 0.000001 0.000002 -0.000001 0.000002 -0.000001 0.000002 -0.000004 -0.000002 -0.000005 0.000003 0.000003 -0.000000 0.000000 -0.000000 -1.362237 0.294634 -4.897698 -9.531706 -0.294313 -3.044223 81.116153 0.080033 -0.805330 -0.000003 -0.000000 -0.000001 -0.000003 0.000000 0.000003 0.000000 0.000001 0.000002 -0.038000 -0.085200 0.016200 0.000001 0.000002 0.000003 -0.000000 0.000000 -0.000000 -1.324394 0.291790 -3.663696 -20.219320 0.477165 4.551875 85.352107 -0.357905 3.615494 0.000000 0.000001 -0.000003 0.000001 0.000000 -0.000004 0.000007 0.000001 -0.000003 0.038000 -0.085200 0.016200 -0.000001 0.000000 -0.000002 
-0.005144 0.254397 -0.021031 -5.828402 30.429763 -6.308004 0.000001 0.000004 0.000001 -0.000001 0.000006 0.000001 -0.000000 -0.000003 0.000001 -0.000000 -0.000001 0.000000 0.000924 0.155148 0.009274 6.459940 -0.008456 5.071855 0.019937 0.078966 0.057518 8.188295 8.572908 51.289537 0.177025 -0.020465 -0.095062 -3.979081 -58.489444 26.514881 4.904189 24.654345 21.553157 -0.000001 -0.000002 -0.000005 0.021770 -0.038291 0.012954 -0.000001 -0.000000 -0.000004 -0.000003 0.000000 -0.000000 0.000002 -0.000001 0.000005 0.000004 0.000003 0.000002 -0.009090 -0.002348 -0.024224 -0.000003 -0.000000 -0.000001 0.000000 0.000001 -0.000000 0.000000 -0.000001 -0.000002 0.032823 -0.025104 0.012281 -0.000001 -0.000000 0.000002 0.000001 0.000000 -0.000005 -0.000002 0.000001 -0.000002 0.000000 -0.000003 0.000001 0.039230 -0.011402 0.008390 0.000001 -0.000001 -0.000003 0.000006 0.000001 0.000003 -0.000000 0.000006 -0.000006 0.000003 -0.000001 0.000005 0.043418 0.002450 0.002889 -0.000002 -0.000001 -0.000002 -0.000006 -0.000003 -0.000002 -0.000000 0.000005 -0.000000 -0.000002 -0.000003 -0.000004 -0.016662 0.078957 0.057696 8.955742 6.661239 -45.378588 -0.176972 -0.020537 -0.095144 -51.279052 -30.545648 71.588347 11.994296 -7.254058 -338.760690 0.000006 0.000003 -0.000000 -0.021773 -0.038278 0.012988 -0.000002 0.000001 -0.000005 -0.000003 -0.000003 -0.000005 0.000003 0.000004 -0.000003 0.000001 -0.000001 0.000006 0.009114 -0.002381 -0.024212 0.000001 -0.000003 -0.000003 0.000002 -0.000002 -0.000005 -0.000001 0.000004 -0.000004 -0.032828 -0.025095 0.012286 0.000001 0.000000 0.000001 0.000001 0.000005 -0.000003 0.000002 -0.000003 -0.000002 -0.000004 0.000008 -0.000005 -0.039192 -0.011488 0.008390 0.000001 0.000001 -0.000000 -0.000001 -0.000000 0.000000 0.000001 -0.000003 -0.000002 -0.000003 -0.000002 0.000003 -0.043421 0.002443 0.002845 -0.000002 0.000004 0.000002 -0.000003 0.000002 -0.000001 0.000001 -0.000003 0.000000 0.000000 -0.000001 0.000001 -0.000000 -0.000000 -0.000000 -1.655084 -0.057494 -0.298693 -21.723290 -0.463630 -4.631123 95.337823 -1.357218 13.832039 0.000002 0.000000 0.000000 -0.000000 -0.000000 -0.000000 0.000000 0.000000 0.000000 -0.038000 -0.085200 0.016200 -0.000005 -0.000000 0.000001 -0.000000 -0.000000 -0.000000 -1.621342 -0.057318 0.935512 -17.572943 0.278429 2.129123 92.071339 -1.899301 19.548900 0.000005 -0.000000 0.000000 0.000002 -0.000001 0.000001 0.000005 -0.000002 0.000001 0.038000 -0.085200 0.016200 -0.000002 -0.000000 0.000000 
